<svg width="25" height="25" viewBox="0 0 25 25" fill="none" xmlns="http://www.w3.org/2000/svg">
<rect width="25" height="25" fill="white"/>
<path d="M18.977 14.8876L18.232 13.7363C18.0024 13.3815 17.8803 12.9679 17.8803 12.5453V7.70927C17.8803 5.77889 18.0201 1.66626 12.5088 1.66626C8.02523 1.66626 6.63879 4.05566 6.2101 5.53353C6.03989 6.12025 6.43985 6.71767 7.04756 6.78038L8.78532 6.95967C9.19436 7.00185 9.58659 6.78475 9.764 6.41378C10.1009 5.70919 10.688 4.65988 12.5 4.65988C13.202 4.65988 14.1891 4.95677 14.1891 5.82484C14.1891 7.0844 14.1874 7.68135 14.1874 7.68135C14.1921 7.9442 13.9803 8.15989 13.7174 8.15989H12.0188C10.7372 8.15989 5.86719 8.81711 5.86719 13.6871C5.86719 18.5572 11.0349 17.9968 11.378 17.9164C12.0182 17.7664 13.2175 17.3284 14.3447 16.2536C14.5341 16.073 14.8362 16.0887 15.0007 16.2922L15.9109 17.4186C16.2647 17.8564 16.9155 17.9024 17.3275 17.5188L18.8236 16.1253C19.168 15.8045 19.2327 15.2828 18.977 14.8876ZM11.5061 14.6162C9.77597 14.6162 9.82528 13.052 10.2245 12.3094C10.598 11.6146 11.5849 10.3828 14.2343 10.299L14.2575 11.5915C14.2748 12.5523 13.8328 13.4752 13.0469 14.0281C12.56 14.3708 12.0287 14.6162 11.5061 14.6162Z" fill="#171715"/>
<path d="M0.103184 19.0631C-0.159936 18.8253 0.126394 18.4042 0.444479 18.5609C2.68002 19.6622 6.88866 21.3648 11.5408 21.3648C16.2949 21.3648 20.2721 20.2292 22.2739 19.5284C22.5993 19.4144 22.8339 19.8405 22.5659 20.0576C20.9778 21.3438 17.5672 23.3338 11.6658 23.3338C5.78646 23.3338 1.96742 20.7478 0.103184 19.0631Z" fill="#FFAC35"/>
<path d="M20.1785 18.37C20.7987 17.9108 22.3395 17.1192 24.6422 17.8114C24.8538 17.8749 24.998 18.0707 24.9997 18.2917C25.0052 19.0471 24.8424 20.8208 23.3636 22.2948C23.261 22.3971 23.0881 22.2966 23.1261 22.1567C23.3786 21.2267 23.892 19.2318 23.7291 18.9535C23.5424 18.6344 21.2086 18.6192 20.263 18.6262C20.1251 18.6273 20.0677 18.452 20.1785 18.37Z" fill="#FFAC35"/>
</svg>
