<svg width="106" height="20" viewBox="0 0 106 20" fill="none" xmlns="http://www.w3.org/2000/svg">
<path d="M47.548 19.9253V5.48418L60.8855 19.9253H70.1856V0.159083H62.5066V15.1136L48.4202 0.159083H39.7449V19.9253H47.548ZM105.65 19.9131L105.652 16.1914L86.3676 16.1962C83.3676 16.1408 83.6854 14.3125 83.6854 12.9492L83.6649 7.90704C83.6649 6.5503 83.3496 4.29879 86.3446 3.78333H105.703V0.179524H82.1294C76.8964 0.179524 74.0288 4.98862 74.0288 10.3137C74.0288 15.4691 76.022 19.9325 81.8848 19.9325L105.65 19.9131ZM8.97618 19.9831C2.27924 19.9831 0 15.4653 0 10.2504C0 4.86633 3.27355 0 9.26466 0H34.6505V3.65037H12.9881C9.5695 4.17312 9.92695 6.4481 9.92695 7.82119L9.96018 12.9229C9.96018 14.2947 9.64042 16.7686 13.0259 16.5709L25.2835 16.5963C26.2791 16.1566 27.1333 14.9438 27.1333 13.99V12.0752H17.8694V8.51315H34.5517V20L8.97618 19.9831Z" fill="#EF3E42"/>
</svg>
