<svg width="73" height="25" viewBox="0 0 73 25" fill="none" xmlns="http://www.w3.org/2000/svg">
<path d="M20.3968 14.4733H12.9033V20.7537C12.9033 22.4665 11.8327 23.6083 10.334 23.6083C9.04942 23.6083 8.05027 22.8947 7.7648 21.6814C7.62207 21.1819 7.62207 20.6823 7.62207 20.1827V5.05282C7.62207 4.69599 7.62207 4.33915 7.69344 3.98231C7.90754 2.41223 8.83532 1.62719 10.4054 1.69856C11.7614 1.76992 12.7605 2.6977 12.9033 4.12505C12.9746 5.33829 12.9033 6.55154 12.9033 7.76479V9.83444H20.3968V4.62462C20.4682 2.6977 21.4673 1.69856 23.1088 1.69856C24.322 1.69856 25.2498 2.4836 25.4639 3.69684C25.5353 4.05368 25.6067 4.48189 25.6067 4.83872V20.4682C25.6067 22.3951 24.7502 23.537 23.2515 23.6797C21.5387 23.8225 20.3968 22.7519 20.3968 20.825C20.3255 18.684 20.3968 16.6857 20.3968 14.4733Z" fill="#498706"/>
<path d="M59.9347 22.1097C59.0783 23.3943 58.0792 23.8939 57.0086 23.6084C55.9381 23.3229 55.3672 22.4665 55.3672 20.9678V4.5533C55.3672 2.98321 56.0809 1.98407 57.1514 1.76997C58.7928 1.4845 60.0061 2.41228 60.0061 4.12509C60.0774 5.62381 60.0061 7.05116 60.0061 8.33577C61.362 7.97893 62.6467 7.40799 64.0026 7.33663C67.2142 7.12252 69.6407 8.90671 70.5684 11.9755C71.3535 14.6161 71.2821 17.1853 70.1402 19.6832C68.4274 23.537 64.0026 24.8216 60.5056 22.4665C60.3629 22.3951 60.1488 22.2524 59.9347 22.1097ZM60.0774 15.2584C60.2915 16.2576 60.3629 16.9712 60.577 17.6849C61.0052 18.8981 62.0044 19.5405 63.289 19.4691C64.5736 19.4691 65.2873 18.684 65.7155 17.6135C66.2864 16.0434 66.2864 14.4734 65.6441 12.9747C65.2873 12.0469 64.6449 11.4046 63.5744 11.2618C62.4326 11.1191 61.5048 11.5473 61.0052 12.5464C60.577 13.4742 60.3629 14.4734 60.0774 15.2584Z" fill="#468602"/>
<path d="M31.8158 17.0426C32.3154 19.7545 34.4564 20.7537 36.5975 19.4691C37.2398 19.0409 37.8107 18.5413 38.3816 17.9704C39.238 17.1853 40.1658 17.1139 41.0222 17.6849C41.95 18.3272 41.95 19.3263 41.5218 20.1827C40.4513 22.3238 38.5244 23.3229 36.2406 23.537C34.8133 23.6797 33.3859 23.6084 31.9586 23.2515C29.8889 22.8233 28.3902 21.4674 27.4624 19.5404C25.821 16.1148 26.4633 11.4045 29.1752 9.12079C31.6017 6.97977 34.5278 6.76567 37.4539 7.76481C40.0945 8.69259 41.5218 10.6909 41.8786 13.4028C42.1641 15.758 41.3791 16.7571 39.0239 16.9712C37.0257 17.1139 35.0987 17.0426 33.1004 17.0426H31.8158ZM36.9543 13.6169C36.8829 12.1182 36.0265 11.1904 34.5992 11.0477C33.1718 10.9763 32.1727 11.8328 31.8872 13.6169H36.9543Z" fill="#488705"/>
<path d="M47.5164 8.54979C49.2292 6.7656 51.6557 7.12244 53.1544 8.05021C54.2963 8.69252 54.6531 9.8344 54.2249 10.9049C53.7254 11.9754 52.7262 12.4036 51.4416 11.9754C49.2292 11.3331 48.4442 11.7613 48.2301 14.0451C48.016 16.3288 48.0873 18.6126 47.9446 20.8963C47.8732 22.4664 47.0882 23.4656 45.8036 23.6083C44.3762 23.751 43.163 22.8946 43.0916 21.3959C43.0202 17.4707 43.0202 13.4741 43.0916 9.54893C43.0916 8.54978 43.5912 7.62201 44.7331 7.33654C45.8036 7.05107 46.8027 7.33654 47.5164 8.54979Z" fill="#478603"/>
<path d="M1.48438 15.4725V9.97722C1.48438 8.2644 2.34078 7.26526 3.8395 7.26526C5.33821 7.26526 6.33736 8.2644 6.33736 9.97722V20.8251C6.33736 22.6806 5.40958 23.6798 3.8395 23.6798C2.34078 23.6798 1.48438 22.6806 1.48438 20.8964V15.4725Z" fill="#468501"/>
<path d="M6.40873 4.33909C6.40873 5.76644 5.40958 6.69421 3.98223 6.76558C2.48352 6.76558 1.48438 5.8378 1.48438 4.33909C1.48438 2.91174 2.48352 1.9126 3.98223 1.9126C5.40958 1.9126 6.40873 2.91174 6.40873 4.33909Z" fill="#4A8807"/>
<path d="M70.7105 2.98317C70.7105 3.83958 69.9968 4.55325 69.1404 4.55325C68.284 4.55325 67.5703 3.83958 67.5703 2.98317C67.5703 2.12676 68.284 1.41309 69.1404 1.41309C69.9968 1.48445 70.7105 2.12676 70.7105 2.98317ZM67.9271 2.98317C67.9271 3.69684 68.4267 4.19641 69.1404 4.19641C69.7827 4.19641 70.2823 3.62548 70.2823 2.98317C70.2823 2.26949 69.7827 1.76992 69.069 1.76992C68.4267 1.76992 67.9271 2.34086 67.9271 2.98317ZM68.8549 3.76821H68.4981V2.26949C68.6408 2.26949 68.8549 2.19813 69.069 2.19813C69.3545 2.19813 69.4972 2.26949 69.5686 2.34086C69.64 2.41223 69.7113 2.55496 69.7113 2.6977C69.7113 2.9118 69.5686 2.98317 69.4259 3.05454C69.5686 3.1259 69.64 3.19727 69.7113 3.41137C69.7827 3.62548 69.7827 3.69684 69.8541 3.76821H69.4972C69.4259 3.69684 69.4259 3.55411 69.3545 3.41137C69.3545 3.26864 69.2118 3.19727 69.069 3.19727H68.9263L68.8549 3.76821ZM68.8549 2.9118H68.9977C69.2118 2.9118 69.3545 2.84043 69.3545 2.6977C69.3545 2.55496 69.2831 2.4836 68.9977 2.4836H68.7836V2.9118H68.8549Z" fill="#4A8807"/>
</svg>
